<svg xmlns="http://www.w3.org/2000/svg" xmlns:xlink="http://www.w3.org/1999/xlink"> <defs>
<symbol id="icon-bus" viewBox="0 0 576 512">
	<title>Bus</title><!--!Font Awesome Free 6.5.2 by @fontawesome - https://fontawesome.com License - https://fontawesome.com/license/free Copyright 2024 Fonticons, Inc.--><path d="M288 0C422.4 0 512 35.2 512 80V96l0 32c17.7 0 32 14.3 32 32v64c0 17.7-14.3 32-32 32l0 160c0 17.7-14.3 32-32 32v32c0 17.7-14.3 32-32 32H416c-17.7 0-32-14.3-32-32V448H192v32c0 17.7-14.3 32-32 32H128c-17.7 0-32-14.3-32-32l0-32c-17.7 0-32-14.3-32-32l0-160c-17.7 0-32-14.3-32-32V160c0-17.7 14.3-32 32-32h0V96h0V80C64 35.2 153.6 0 288 0zM128 160v96c0 17.7 14.3 32 32 32H272V128H160c-17.7 0-32 14.3-32 32zM304 288H416c17.7 0 32-14.3 32-32V160c0-17.7-14.3-32-32-32H304V288zM144 400a32 32 0 1 0 0-64 32 32 0 1 0 0 64zm288 0a32 32 0 1 0 0-64 32 32 0 1 0 0 64zM384 80c0-8.8-7.2-16-16-16H208c-8.8 0-16 7.2-16 16s7.2 16 16 16H368c8.8 0 16-7.2 16-16z"/></symbol>
    <symbol id="icon-footprints" viewBox="0 0 640 512">
	<title>Footprints</title><!--!Font Awesome Free 6.5.2 by @fontawesome - https://fontawesome.com License - https://fontawesome.com/license/free Copyright 2024 Fonticons, Inc.-->
    <path d="M416 0C352.3 0 256 32 256 32V160c48 0 76 16 104 32s56 32 104 32c56.4 0 176-16 176-96S512 0 416 0zM128 96c0 35.3 28.7 64 64 64h32V32H192c-35.3 0-64 28.7-64 64zM288 512c96 0 224-48 224-128s-119.6-96-176-96c-48 0-76 16-104 32s-56 32-104 32V480s96.3 32 160 32zM0 416c0 35.3 28.7 64 64 64H96V352H64c-35.3 0-64 28.7-64 64z"/></symbol>
<symbol id="icon-horse" viewBox="0 0 576 512">
	<title>Horse</title><!--!Font Awesome Free 6.5.2 by @fontawesome - https://fontawesome.com License - https://fontawesome.com/license/free Copyright 2024 Fonticons, Inc.-->
<path d="M448 238.1V160h16l9.8 19.6c12.5 25.1 42.2 36.4 68.3 26c20.5-8.2 33.9-28 33.9-50.1V80c0-19.1-8.4-36.3-21.7-48H560c8.8 0 16-7.2 16-16s-7.2-16-16-16H480 448C377.3 0 320 57.3 320 128H224 203.2 148.8c-30.7 0-57.6 16.3-72.5 40.8C33.2 174.5 0 211.4 0 256v56c0 13.3 10.7 24 24 24s24-10.7 24-24V256c0-13.4 6.6-25.2 16.7-32.5c1.6 13 6.3 25.4 13.6 36.4l28.2 42.4c8.3 12.4 6.4 28.7-1.2 41.6c-16.5 28-20.6 62.2-10 93.9l17.5 52.4c4.4 13.1 16.6 21.9 30.4 21.9h33.7c21.8 0 37.3-21.4 30.4-42.1l-20.8-62.5c-2.1-6.4-.5-13.4 4.3-18.2l12.7-12.7c13.2-13.2 20.6-31.1 20.6-49.7c0-2.3-.1-4.6-.3-6.9l84 24c4.1 1.2 8.2 2.1 12.3 2.8V480c0 17.7 14.3 32 32 32h32c17.7 0 32-14.3 32-32V315.7c19.2-19.2 31.5-45.7 32-75.7h0v-1.9zM496 64a16 16 0 1 1 0 32 16 16 0 1 1 0-32z"/></symbol>

<symbol id="icon-food" viewBox="-30 0 576 512">
<title>Food</title>
<!--!Font Awesome Free 6.5.2 by @fontawesome - https://fontawesome.com License - https://fontawesome.com/license/free Copyright 2024 Fonticons, Inc.--><path d="M416 0C400 0 288 32 288 176V288c0 35.3 28.7 64 64 64h32V480c0 17.7 14.3 32 32 32s32-14.3 32-32V352 240 32c0-17.7-14.3-32-32-32zM64 16C64 7.8 57.9 1 49.7 .1S34.2 4.6 32.4 12.5L2.1 148.8C.7 155.1 0 161.5 0 167.9c0 45.9 35.1 83.6 80 87.7V480c0 17.7 14.3 32 32 32s32-14.3 32-32V255.6c44.9-4.1 80-41.8 80-87.7c0-6.4-.7-12.8-2.1-19.1L191.6 12.5c-1.8-8-9.3-13.3-17.4-12.4S160 7.8 160 16V150.2c0 5.4-4.4 9.8-9.8 9.8c-5.1 0-9.3-3.9-9.8-9L127.9 14.6C127.2 6.3 120.3 0 112 0s-15.2 6.3-15.9 14.6L83.7 151c-.5 5.1-4.7 9-9.8 9c-5.4 0-9.8-4.4-9.8-9.8V16zm48.3 152l-.3 0-.3 0 .3-.7 .3 .7z"/></symbol>


<symbol id="icon-winebottle" viewBox="0 0 512 512">
<title>Wine Bottle</title><!--!Font Awesome Free 6.5.2 by @fontawesome - https://fontawesome.com License - https://fontawesome.com/license/free Copyright 2024 Fonticons, Inc.--><path d="M393.4 9.4c12.5-12.5 32.8-12.5 45.3 0l64 64c12.5 12.5 12.5 32.8 0 45.3c-11.8 11.8-30.7 12.5-43.2 1.9l-9.5 9.5-48.8 48.8c-9.2 9.2-11.5 22.9-8.6 35.6c9.4 40.9-1.9 85.6-33.8 117.5L197.3 493.3c-25 25-65.5 25-90.5 0l-88-88c-25-25-25-65.5 0-90.5L180.2 153.3c31.9-31.9 76.6-43.1 117.5-33.8c12.6 2.9 26.4 .5 35.5-8.6l48.8-48.8 9.5-9.5c-10.6-12.6-10-31.4 1.9-43.2zM99.3 347.3l65.4 65.4c6.2 6.2 16.4 6.2 22.6 0l97.4-97.4c6.2-6.2 6.2-16.4 0-22.6l-65.4-65.4c-6.2-6.2-16.4-6.2-22.6 0L99.3 324.7c-6.2 6.2-6.2 16.4 0 22.6z"/></symbol>

<symbol id="icon-wineglass" viewBox="-80 0 512 512">
<title>Wineglass</title><!--!Font Awesome Free 6.5.2 by @fontawesome - https://fontawesome.com License - https://fontawesome.com/license/free Copyright 2024 Fonticons, Inc.--><path d="M32.1 29.3C33.5 12.8 47.4 0 64 0H256c16.6 0 30.5 12.8 31.9 29.3l14 168.4c6 72-42.5 135.2-109.9 150.6V448h48c17.7 0 32 14.3 32 32s-14.3 32-32 32H160 80c-17.7 0-32-14.3-32-32s14.3-32 32-32h48V348.4C60.6 333 12.1 269.8 18.1 197.8l14-168.4zm56 98.7H231.9l-5.3-64H93.4l-5.3 64z"/></symbol>

    </defs>
    </svg>
